<svg xmlns="http://www.w3.org/2000/svg" xmlns:xlink="http://www.w3.org/1999/xlink" version="1.1" x="0px" y="0px" viewBox="0 0 69 86.25" style="enable-background:new 0 0 69 69;" xml:space="preserve"><g><path d="M67.71973,65.79004c0-0.55273-0.44727-1-1-1H49.0238c0.15308-0.37402,0.24084-0.78156,0.24084-1.20996v-7.90161   c3.36076-3.85941-8.83366,10.14433,17.40723-19.98999c1.04297-1.19727,0.91699-3.02051-0.2793-4.06348l-5.66602-4.93555h-0.00098   c-1.2002-1.0459-3.02637-0.91699-4.07031,0.28027c-0.75569,0.8671,2.73752-3.14111-7.39063,8.48022V14.05957   c0-1.76953-1.44043-3.20996-3.20996-3.20996h-7.5791v-0.73926c0-1.41699-1.15332-2.57031-2.57031-2.57031h-3.71875   c-0.53711-3.05664-3.17578-5.33008-6.38184-5.33008c-3.14746,0-5.82617,2.31543-6.37793,5.33008h-3.71191   c-1.42285,0-2.58008,1.15332-2.58008,2.57031v0.73926H5.55469c-1.76953,0-3.20996,1.44043-3.20996,3.20996v49.52051   c0,0.42841,0.08783,0.83594,0.24091,1.20996H2.28027c-0.55273,0-1,0.44727-1,1s0.44727,1,1,1c27.92943,0,35.1614,0,64.43945,0   C67.27246,66.79004,67.71973,66.34277,67.71973,65.79004z M42.66528,60.2052c-0.10061-0.08773-2.92212-2.54833-2.74213-2.39136   c1.02953-1.19189,17.71772-20.34222,18.85126-21.64294l2.74902,2.3877C54.71272,46.37686,45.75417,56.66728,42.66528,60.2052z    M14.13477,20.19043h23.34082c0.55273,0,1-0.44727,1-1v-1.34082h3.7998v25.62238l-7.37817,8.46844H22.125c-0.55273,0-1,0.44727-1,1   s0.44727,1,1,1h11.17285c-0.00012,0.00055-0.00006,0.00104-0.00018,0.00159c-0.00769,0.02808-0.01776,0.05328-0.02325,0.08337   l-1.2337,5.76465H9.34473V17.84961h3.79004v1.34082C13.13477,19.74316,13.58203,20.19043,14.13477,20.19043z M54.52246,32.45898   c0.10072,0.08761,2.92952,2.54829,2.74933,2.39154c-25.23494,28.95789-17.2652,19.8108-18.86139,21.64465   c-2.09756-1.82758-2.05857-1.79362-2.74493-2.3913C42.09707,46.72609,48.69315,39.15145,54.52246,32.45898z M34.88147,56.07385   c0.10207,0.08912,6.32742,5.52399,5.93835,5.18433l-7.64307,2.77698L34.88147,56.07385z M58.16309,28.2832   c0.32545-0.37253,0.8849-0.40116,1.25-0.08594l5.66504,4.93555c0.36621,0.31934,0.4043,0.87695,0.08496,1.24316l-2.32227,2.67285   c-1.25964-1.09728-7.3635-6.41443-7.00098-6.09863L58.16309,28.2832z M46.05469,12.84961   c0.66699,0,1.20996,0.54297,1.20996,1.20996v23.68591l-2.98926,3.43097V16.84961c0-0.55273-0.44727-1-1-1h-4.7998v-3H46.05469z    M15.13477,10.11035c0-0.31445,0.25977-0.57031,0.58008-0.57031h4.61035c0.54199,0,0.98535-0.43164,1-0.97266   c0.06445-2.40234,2.07422-4.35742,4.47949-4.35742s4.41602,1.95508,4.48047,4.35742c0.01465,0.54102,0.45801,0.97266,1,0.97266   h4.62012c0.31934,0,0.57031,0.25098,0.57031,0.57031c0,0.17409,0,8.45428,0,8.08008H15.13477   C15.13477,15.37884,15.13477,13.23501,15.13477,10.11035z M4.34473,63.58008V14.05957c0-0.66699,0.54297-1.20996,1.20996-1.20996   h7.58008v3H8.34473c-0.55273,0-1,0.44727-1,1v43.94043c0,0.55273,0.44727,1,1,1h23.26794l-0.64203,3H5.55469   C4.8877,64.79004,4.34473,64.24707,4.34473,63.58008z M36.95471,64.79004c6.57616-2.40641,6.03975-2.16919,6.27844-2.30157   c0.10016-0.05414,0.19141-0.12012,0.26672-0.20319c0.16772-0.18499,2.30886-2.63971,3.76477-4.30872v5.60352   c0,0.66699-0.54297,1.20996-1.20996,1.20996H36.95471z"/><path d="M25.80957,13.69727c1.84082,0,3.33789-1.49805,3.33789-3.33887s-1.49707-3.33789-3.33789-3.33789   S22.4707,8.51758,22.4707,10.3584S23.96875,13.69727,25.80957,13.69727z M25.80957,9.02051   c0.7373,0,1.33789,0.60059,1.33789,1.33789c0,0.73828-0.60059,1.33887-1.33789,1.33887c-0.73828,0-1.33887-0.60059-1.33887-1.33887   C24.4707,9.62109,25.07129,9.02051,25.80957,9.02051z"/><path d="M10.70605,26.98047c0,2.06641,1.68066,3.74707,3.74609,3.74707c2.06641,0,3.74707-1.68066,3.74707-3.74707   s-1.68066-3.74707-3.74707-3.74707C12.38672,23.2334,10.70605,24.91406,10.70605,26.98047z M14.45215,25.2334   c0.96289,0,1.74707,0.78418,1.74707,1.74707s-0.78418,1.74707-1.74707,1.74707s-1.74609-0.78418-1.74609-1.74707   S13.48926,25.2334,14.45215,25.2334z"/><path d="M22.12598,27.98047h17.78809c0.55273,0,1-0.44727,1-1s-0.44727-1-1-1H22.12598c-0.55273,0-1,0.44727-1,1   S21.57324,27.98047,22.12598,27.98047z"/><path d="M14.45215,31.88672c-2.06543,0-3.74609,1.68066-3.74609,3.74609c0,2.06641,1.68066,3.74707,3.74609,3.74707   c2.06641,0,3.74707-1.68066,3.74707-3.74707C18.19922,33.56738,16.51855,31.88672,14.45215,31.88672z M14.45215,37.37988   c-0.96289,0-1.74609-0.78418-1.74609-1.74707s0.7832-1.74609,1.74609-1.74609s1.74707,0.7832,1.74707,1.74609   S15.41504,37.37988,14.45215,37.37988z"/><path d="M22.12598,36.63281h17.78809c0.55273,0,1-0.44727,1-1s-0.44727-1-1-1H22.12598c-0.55273,0-1,0.44727-1,1   S21.57324,36.63281,22.12598,36.63281z"/><path d="M14.45215,40.53906c-2.06543,0-3.74609,1.68066-3.74609,3.74609c0,2.06641,1.68066,3.74707,3.74609,3.74707   c2.06641,0,3.74707-1.68066,3.74707-3.74707C18.19922,42.21973,16.51855,40.53906,14.45215,40.53906z M14.45215,46.03223   c-0.96289,0-1.74609-0.78418-1.74609-1.74707s0.7832-1.74609,1.74609-1.74609s1.74707,0.7832,1.74707,1.74609   S15.41504,46.03223,14.45215,46.03223z"/><path d="M22.12598,45.28516h17.78809c0.55273,0,1-0.44727,1-1s-0.44727-1-1-1H22.12598c-0.55273,0-1,0.44727-1,1   S21.57324,45.28516,22.12598,45.28516z"/><path d="M14.45215,49.19141c-2.06543,0-3.74609,1.68066-3.74609,3.74707c0,2.06543,1.68066,3.74609,3.74609,3.74609   c2.06641,0,3.74707-1.68066,3.74707-3.74609C18.19922,50.87207,16.51855,49.19141,14.45215,49.19141z M14.45215,54.68457   c-0.96289,0-1.74609-0.7832-1.74609-1.74609s0.7832-1.74707,1.74609-1.74707s1.74707,0.78418,1.74707,1.74707   S15.41504,54.68457,14.45215,54.68457z"/></g><text x="0" y="84" fill="#000000" font-size="5px" font-weight="bold" font-family="'Helvetica Neue', Helvetica, Arial-Unicode, Arial, Sans-serif">Created by Vectors Point</text><text x="0" y="89" fill="#000000" font-size="5px" font-weight="bold" font-family="'Helvetica Neue', Helvetica, Arial-Unicode, Arial, Sans-serif">from the Noun Project</text></svg>